<svg width="112" height="20" viewBox="0 0 112 20" fill="none" xmlns="http://www.w3.org/2000/svg">
<path d="M0.755859 19H5.1626L9.81348 11.1265H10.668L16.5884 1.22656H12.2915L7.97021 8.69727H7.10352L0.755859 19ZM1.02441 1.22656L7.17676 11.1875H7.18896L11.8887 19H17.0522L10.5703 8.66064H10.5581L6.12695 1.25098L1.02441 1.22656ZM18.2241 19H22.5576V10.9678C22.7448 10.4876 23.0011 10.1255 23.3267 9.88135C23.6603 9.62907 24.0509 9.50293 24.4985 9.50293C25.0275 9.50293 25.4222 9.66162 25.6826 9.979C25.9512 10.2882 26.0854 10.7684 26.0854 11.4194V19H30.4312V10.9678C30.6265 10.5039 30.891 10.1418 31.2246 9.88135C31.5664 9.62093 31.9611 9.49479 32.4087 9.50293C32.9295 9.50293 33.3161 9.65755 33.5684 9.9668C33.8288 10.276 33.959 10.748 33.959 11.3828V19H38.3169V11.3584C38.3169 9.52734 37.9263 8.22119 37.145 7.43994C36.3638 6.65869 35.3506 6.26807 34.1055 6.26807C33.251 6.26807 32.4331 6.45931 31.6519 6.8418C30.8787 7.22428 30.2847 7.76139 29.8696 8.45312H29.833C29.5563 7.75326 29.0884 7.21615 28.4292 6.8418C27.77 6.45931 26.9969 6.26807 26.1099 6.26807C25.3612 6.26807 24.6654 6.41862 24.0225 6.71973C23.3877 7.02083 22.8872 7.45215 22.521 8.01367H22.46L22.4111 6.53662H18.2241V19ZM40.2822 12.9453C40.2822 14.9229 40.9129 16.4854 42.1743 17.6328C43.4438 18.7803 45.0918 19.354 47.1182 19.354C49.1445 19.354 50.7884 18.7803 52.0498 17.6328C53.3193 16.4854 53.9541 14.9229 53.9541 12.9453V12.5547C53.9541 10.5853 53.3193 9.02686 52.0498 7.87939C50.7884 6.73193 49.1445 6.1582 47.1182 6.1582C45.0918 6.1582 43.4438 6.73193 42.1743 7.87939C40.9129 9.02686 40.2822 10.5853 40.2822 12.5547V12.9453ZM44.7012 12.3105C44.7012 11.2933 44.9168 10.5405 45.3481 10.0522C45.7795 9.56396 46.3695 9.31982 47.1182 9.31982C47.8587 9.31982 48.4447 9.56396 48.876 10.0522C49.3073 10.5405 49.5229 11.2933 49.5229 12.3105V13.1895C49.5229 14.2148 49.3114 14.9717 48.8882 15.46C48.465 15.9482 47.875 16.1924 47.1182 16.1924C46.3532 16.1924 45.7591 15.9482 45.3359 15.46C44.9128 14.9717 44.7012 14.2148 44.7012 13.1895V12.3105ZM55.4189 12.9453C55.4189 14.9066 56.0293 16.465 57.25 17.6206C58.4788 18.7762 60.1593 19.354 62.2915 19.354C63.7401 19.354 64.9608 19.0895 65.9536 18.5605C66.9546 18.0316 67.6585 17.3073 68.0654 16.3877L64.7817 14.7886C64.5213 15.1873 64.1755 15.5373 63.7441 15.8384C63.321 16.1313 62.8083 16.2778 62.2061 16.2778C61.4085 16.2778 60.7941 16.0093 60.3628 15.4722C59.9396 14.9269 59.728 14.1497 59.728 13.1406V12.2617C59.728 11.277 59.9233 10.5161 60.314 9.979C60.7046 9.43376 61.2702 9.16113 62.0107 9.16113C62.6618 9.16113 63.1623 9.36051 63.5122 9.75928C63.8703 10.1499 64.0452 10.6382 64.0371 11.2241V11.4561H58.2144V13.6777H68.2852V12.3594C68.2852 10.4225 67.7318 8.90479 66.625 7.80615C65.5182 6.70752 63.9924 6.1582 62.0474 6.1582C60.1024 6.1582 58.5114 6.74007 57.2744 7.90381C56.0374 9.05941 55.4189 10.6097 55.4189 12.5547V12.9453ZM69.6035 12.9575C69.6035 14.813 70.0877 16.3267 71.0562 17.4985C72.0246 18.6623 73.3633 19.2441 75.0723 19.2441C75.8698 19.2441 76.5737 19.0814 77.1841 18.7559C77.7944 18.4303 78.238 18.0234 78.5146 17.5352H78.5635L78.6123 19H82.7871V0.555176H78.478V7.78174C78.1688 7.34229 77.7212 6.98421 77.1353 6.70752C76.5493 6.43083 75.8576 6.29248 75.0601 6.29248C73.4487 6.29248 72.1344 6.87435 71.1172 8.03809C70.1081 9.20182 69.6035 10.7114 69.6035 12.5669V12.9575ZM74.0225 13.1162V12.4204C74.0225 11.509 74.2178 10.7806 74.6084 10.2354C75.0072 9.68197 75.5768 9.40527 76.3174 9.40527C76.8708 9.40527 77.3184 9.54362 77.6602 9.82031C78.0101 10.097 78.2705 10.4429 78.4414 10.8579V14.6543C78.2624 15.0612 77.9897 15.4111 77.6235 15.7041C77.2655 15.9889 76.826 16.1313 76.3052 16.1313C75.5565 16.1313 74.9868 15.8587 74.5962 15.3135C74.2137 14.7601 74.0225 14.0277 74.0225 13.1162ZM84.8989 15.3501C84.8989 16.6522 85.3058 17.6247 86.1196 18.2676C86.9416 18.9023 87.9832 19.2197 89.2446 19.2197C90.2944 19.2197 91.1733 19.0366 91.8813 18.6704C92.5975 18.3042 93.0736 17.8932 93.3096 17.4375C93.3421 17.7223 93.391 18.0072 93.4561 18.292C93.5293 18.5768 93.6147 18.8128 93.7124 19H98.0093V18.8169C97.8384 18.4995 97.7041 18.117 97.6064 17.6694C97.5169 17.2137 97.4722 16.7336 97.4722 16.229V10.5527C97.4722 9.0472 96.9676 7.9445 95.9585 7.24463C94.9575 6.53662 93.5415 6.18262 91.7104 6.18262C89.8957 6.18262 88.4227 6.54883 87.2915 7.28125C86.1603 8.01367 85.5947 8.97803 85.5947 10.1743V10.4062H89.7573V10.1743C89.7573 9.79183 89.8875 9.48258 90.1479 9.24658C90.4165 9.00244 90.856 8.88037 91.4663 8.88037C92.0848 8.88037 92.5161 9.02686 92.7603 9.31982C93.0044 9.60465 93.1265 9.99121 93.1265 10.4795V11.1265H90.6362C88.9679 11.1346 87.5926 11.4927 86.5103 12.2007C85.436 12.9006 84.8989 13.9504 84.8989 15.3501ZM89.2324 14.9595C89.2324 14.4631 89.4155 14.0928 89.7817 13.8486C90.1479 13.5964 90.7217 13.4702 91.5029 13.4702H93.1265V14.4224C93.1265 15.0246 92.923 15.5332 92.5161 15.9482C92.1092 16.3551 91.5802 16.5586 90.9292 16.5586C90.3433 16.5586 89.9119 16.4121 89.6353 16.1191C89.3667 15.8262 89.2324 15.4396 89.2324 14.9595ZM99.5718 14.9595V15.1304C99.5881 16.4976 100.125 17.5433 101.183 18.2676C102.249 18.9919 103.743 19.354 105.663 19.354C107.6 19.354 109.081 18.9919 110.106 18.2676C111.14 17.5433 111.657 16.5098 111.657 15.167C111.657 14.0846 111.299 13.2383 110.583 12.6279C109.875 12.0176 108.743 11.57 107.189 11.2852C105.806 11.0247 104.943 10.805 104.601 10.626C104.259 10.4388 104.088 10.1906 104.088 9.88135C104.088 9.56396 104.21 9.31982 104.455 9.14893C104.699 8.96989 105.097 8.88037 105.651 8.88037C106.212 8.88037 106.632 8.99837 106.908 9.23438C107.193 9.46224 107.335 9.79183 107.335 10.2231V10.4551H111.449V10.272C111.449 8.98617 110.928 7.98112 109.887 7.25684C108.853 6.52441 107.458 6.1582 105.7 6.1582C103.917 6.1582 102.51 6.50814 101.476 7.20801C100.451 7.89974 99.938 8.8763 99.938 10.1377C99.938 11.1631 100.272 11.9972 100.939 12.6401C101.614 13.283 102.729 13.751 104.284 14.0439C105.651 14.3125 106.505 14.5322 106.847 14.7031C107.197 14.874 107.372 15.1426 107.372 15.5088C107.372 15.875 107.226 16.1639 106.933 16.3755C106.648 16.5789 106.208 16.6807 105.614 16.6807C105.02 16.6807 104.552 16.5708 104.21 16.3511C103.869 16.1313 103.698 15.757 103.698 15.228V14.9839L99.5718 14.9595Z" fill="#1363DF"/>
</svg>
