<svg width="309" height="84" viewBox="0 0 309 84" fill="none" xmlns="http://www.w3.org/2000/svg">
<g clip-path="url(#clip0_1_2)">
<rect x="6" y="6" width="70" height="70" rx="12" fill="#363636"/>
<path d="M24.341 56.3212L24.1918 56.146L23.7965 59.3629C23.7671 59.6116 23.6887 59.852 23.5658 60.0702C23.4429 60.2884 23.2779 60.48 23.0804 60.634C22.7828 60.8729 22.4202 61.0169 22.0398 61.0474C21.6593 61.0778 21.2784 60.9934 20.9465 60.8051C20.6146 60.6167 20.3469 60.333 20.1782 59.9908C20.0094 59.6486 19.9473 59.2637 20 58.8858L21.0405 50.5545V50.5284C21.0472 50.4769 21.0571 50.4259 21.0703 50.3756C21.1278 50.133 21.2325 49.9041 21.3785 49.7019C21.5245 49.4998 21.7089 49.3284 21.9212 49.1975C22.1335 49.0667 22.3696 48.9789 22.6158 48.9393C22.8621 48.8996 23.1137 48.9089 23.3564 48.9666C26.146 49.5953 28.933 50.2352 31.7176 50.8863C31.9607 50.9401 32.1906 51.0421 32.3936 51.1861C32.5967 51.3302 32.7688 51.5134 32.8998 51.725C33.1641 52.1524 33.2498 52.6665 33.1385 53.1564C33.0842 53.3987 32.982 53.6278 32.8379 53.83C32.6938 54.0323 32.5107 54.2038 32.2994 54.3343C31.8742 54.6011 31.3605 54.6882 30.8711 54.5766C29.6367 54.2971 28.4022 54.01 27.1715 53.7267C27.5054 54.1172 27.8589 54.4904 28.2307 54.845C30.9125 57.4646 34.3211 59.2168 38.0128 59.8736C39.8244 60.1935 41.6742 60.2362 43.4987 60.0003C45.3041 59.7762 47.0639 59.2745 48.716 58.513C49.3426 58.2173 49.943 57.9017 50.5173 57.5662C51.0991 57.2195 51.6622 56.8505 52.1992 56.4479C53.3724 55.5942 54.4435 54.6086 55.3916 53.5105C56.3207 52.4332 57.1204 51.251 57.7746 49.9879L57.9835 49.5779L61.7128 50.5806L61.4145 51.1994C60.626 52.8368 59.6363 54.3695 58.4683 55.762C57.2815 57.1751 55.9279 58.4393 54.4369 59.5269C53.8103 59.9854 53.1465 60.4216 52.4528 60.8316C51.7592 61.2416 51.0618 61.6032 50.3122 61.9499C48.3069 62.8921 46.1686 63.5207 43.9723 63.8137C41.7663 64.1033 39.529 64.0543 37.3378 63.6683C32.8915 62.8777 28.7871 60.7654 25.5605 57.6072C25.1129 57.1748 24.7176 56.7461 24.3522 56.3212H24.341ZM57.6665 26.679L57.8157 26.8542L58.1886 23.6373C58.2148 23.3853 58.2911 23.1411 58.4129 22.919C58.5348 22.6968 58.6997 22.5012 58.8981 22.3436C59.0965 22.1859 59.3243 22.0694 59.5683 22.0008C59.8123 21.9323 60.0675 21.9131 60.319 21.9443C60.5706 21.9755 60.8133 22.0566 61.0331 22.1828C61.2529 22.3089 61.4453 22.4776 61.599 22.679C61.7528 22.8804 61.8648 23.1104 61.9285 23.3556C61.9922 23.6008 62.0064 23.8562 61.9702 24.107L60.9483 32.4457V32.4718C60.9483 32.5202 60.9483 32.5724 60.9222 32.6246C60.806 33.1106 60.5027 33.5311 60.0782 33.7949C59.6537 34.0587 59.1422 34.1445 58.6548 34.0336C55.8689 33.4037 53.0607 32.7663 50.2936 32.1139C50.0511 32.0596 49.822 31.9575 49.6196 31.8134C49.4172 31.6694 49.2457 31.4864 49.1151 31.2752C48.848 30.8489 48.7608 30.3342 48.8727 29.8438C48.927 29.6015 49.0292 29.3724 49.1733 29.1702C49.3174 28.9679 49.5005 28.7964 49.7118 28.6659C50.1383 28.3989 50.6532 28.3118 51.1438 28.4236C52.3783 28.7031 53.6089 28.9902 54.8434 29.2735C54.5301 28.9007 54.1833 28.5279 53.7842 28.1365C52.4476 26.8318 50.9227 25.7348 49.2605 24.8823C47.6088 24.0271 45.8372 23.4264 44.0059 23.1005C42.1955 22.7806 40.3469 22.7379 38.5237 22.9738C36.7147 23.21 34.9533 23.7256 33.3026 24.5021C32.6736 24.7953 32.0732 25.1109 31.5013 25.4489C30.9158 25.7956 30.3564 26.1646 29.8157 26.5672C28.6429 27.4199 27.5729 28.4056 26.6271 29.5046C25.6954 30.5799 24.8954 31.7625 24.244 33.0272L24.0314 33.4372L20.2834 32.4196L20.5818 31.8008C21.3712 30.1639 22.3608 28.6313 23.528 27.2382C24.7157 25.826 26.0692 24.5619 27.5594 23.4733C28.1909 23.0135 28.8522 22.5786 29.5434 22.1686C30.2184 21.7735 30.9345 21.397 31.6841 21.0503C33.6894 20.1081 35.8276 19.4795 38.024 19.1865C40.2349 18.8953 42.4774 18.9444 44.6734 19.3319C46.8824 19.7222 49.0198 20.4435 51.0133 21.4715C53.0127 22.4999 54.8467 23.8217 56.4544 25.393C56.8982 25.8254 57.2973 26.2541 57.6628 26.679H57.6665Z" fill="white"/>
<path d="M40.648 55.6023V28.3295H42.3952V55.6023H40.648ZM45.2822 37.3317C45.197 36.4723 44.8313 35.8047 44.1849 35.3288C43.5386 34.853 42.6615 34.6151 41.5536 34.6151C40.8007 34.6151 40.1651 34.7216 39.6466 34.9347C39.1281 35.1406 38.7304 35.4283 38.4534 35.7976C38.1835 36.1669 38.0486 36.5859 38.0486 37.0547C38.0344 37.4453 38.1161 37.7862 38.2936 38.0774C38.4783 38.3686 38.7304 38.6207 39.05 38.8338C39.3696 39.0398 39.7389 39.2209 40.158 39.3771C40.577 39.5263 41.0244 39.6541 41.5003 39.7607L43.4605 40.2294C44.4122 40.4425 45.2858 40.7266 46.0813 41.0817C46.8767 41.4368 47.5656 41.8736 48.148 42.392C48.7304 42.9105 49.1814 43.5213 49.501 44.2244C49.8277 44.9276 49.9946 45.7337 50.0017 46.6428C49.9946 47.978 49.6537 49.1357 48.979 50.1158C48.3114 51.0888 47.3455 51.8452 46.0813 52.3849C44.8242 52.9176 43.3078 53.1839 41.5322 53.1839C39.7709 53.1839 38.2368 52.9141 36.93 52.3743C35.6303 51.8345 34.6146 51.0355 33.8831 49.9773C33.1587 48.9119 32.7787 47.5945 32.7432 46.0249H37.207C37.2567 46.7564 37.4662 47.3672 37.8355 47.8572C38.2119 48.3402 38.7126 48.706 39.3376 48.9545C39.9697 49.196 40.6835 49.3168 41.479 49.3168C42.2602 49.3168 42.9385 49.2031 43.5138 48.9759C44.0962 48.7486 44.5472 48.4325 44.8668 48.0277C45.1864 47.6229 45.3462 47.1577 45.3462 46.6321C45.3462 46.142 45.2006 45.7301 44.9094 45.3963C44.6253 45.0625 44.2063 44.7784 43.6523 44.544C43.1054 44.3097 42.4342 44.0966 41.6388 43.9048L39.2631 43.3082C37.4236 42.8608 35.9712 42.1612 34.9058 41.2095C33.8405 40.2578 33.3114 38.9759 33.3185 37.3636C33.3114 36.0426 33.6629 34.8885 34.3732 33.9013C35.0905 32.9141 36.0742 32.1435 37.3242 31.5895C38.5742 31.0355 39.9946 30.7585 41.5855 30.7585C43.2048 30.7585 44.6182 31.0355 45.8256 31.5895C47.0401 32.1435 47.9847 32.9141 48.6594 33.9013C49.3341 34.8885 49.6821 36.032 49.7034 37.3317H45.2822Z" fill="white"/>
<path d="M95.7195 52.2536H93.8601C93.8071 51.9486 93.7093 51.6785 93.5668 51.4432C93.4242 51.2045 93.2469 51.0024 93.0348 50.8366C92.8227 50.6709 92.5807 50.5466 92.3089 50.4638C92.0405 50.3776 91.7505 50.3345 91.4389 50.3345C90.8854 50.3345 90.3949 50.4737 89.9673 50.7521C89.5398 51.0272 89.205 51.4316 88.9631 51.9652C88.7211 52.4955 88.6001 53.1435 88.6001 53.9091C88.6001 54.688 88.7211 55.3442 88.9631 55.8778C89.2083 56.4081 89.5431 56.8092 89.9673 57.081C90.3949 57.3494 90.8838 57.4837 91.4339 57.4837C91.7389 57.4837 92.0239 57.4439 92.2891 57.3643C92.5575 57.2815 92.7978 57.1605 93.0099 57.0014C93.2254 56.8423 93.406 56.6468 93.5518 56.4148C93.701 56.1828 93.8037 55.9176 93.8601 55.6193L95.7195 55.6293C95.6499 56.1132 95.4991 56.5672 95.267 56.9915C95.0384 57.4157 94.7384 57.7902 94.3672 58.1151C93.996 58.4366 93.5618 58.6884 93.0646 58.8707C92.5675 59.0497 92.0156 59.1392 91.4091 59.1392C90.5142 59.1392 89.7154 58.9321 89.0128 58.5178C88.3101 58.1035 87.7566 57.5052 87.3523 56.723C86.9479 55.9408 86.7457 55.0028 86.7457 53.9091C86.7457 52.812 86.9496 51.8741 87.3572 51.0952C87.7649 50.313 88.3201 49.7147 89.0227 49.3004C89.7254 48.8861 90.5208 48.679 91.4091 48.679C91.9759 48.679 92.5028 48.7585 92.9901 48.9176C93.4773 49.0767 93.9115 49.3104 94.2926 49.6186C94.6738 49.9235 94.987 50.2981 95.2322 50.7422C95.4808 51.183 95.6432 51.6868 95.7195 52.2536ZM107.907 53.9091C107.907 55.0062 107.701 55.9458 107.29 56.728C106.882 57.5069 106.326 58.1035 105.62 58.5178C104.917 58.9321 104.12 59.1392 103.228 59.1392C102.337 59.1392 101.538 58.9321 100.832 58.5178C100.129 58.1001 99.5725 57.5019 99.1615 56.723C98.7539 55.9408 98.55 55.0028 98.55 53.9091C98.55 52.812 98.7539 51.8741 99.1615 51.0952C99.5725 50.313 100.129 49.7147 100.832 49.3004C101.538 48.8861 102.337 48.679 103.228 48.679C104.12 48.679 104.917 48.8861 105.62 49.3004C106.326 49.7147 106.882 50.313 107.29 51.0952C107.701 51.8741 107.907 52.812 107.907 53.9091ZM106.052 53.9091C106.052 53.1368 105.931 52.4856 105.689 51.9553C105.451 51.4216 105.119 51.0189 104.695 50.7472C104.271 50.4721 103.782 50.3345 103.228 50.3345C102.675 50.3345 102.186 50.4721 101.762 50.7472C101.337 51.0189 101.004 51.4216 100.762 51.9553C100.524 52.4856 100.404 53.1368 100.404 53.9091C100.404 54.6813 100.524 55.3343 100.762 55.8679C101.004 56.3982 101.337 56.8009 101.762 57.076C102.186 57.3478 102.675 57.4837 103.228 57.4837C103.782 57.4837 104.271 57.3478 104.695 57.076C105.119 56.8009 105.451 56.3982 105.689 55.8679C105.931 55.3343 106.052 54.6813 106.052 53.9091ZM119.418 48.8182V59H117.777L112.979 52.0646H112.895V59H111.05V48.8182H112.701L117.494 55.7585H117.583V48.8182H119.418ZM124.19 48.8182L126.839 56.8324H126.944L129.589 48.8182H131.617L128.028 59H125.751L122.166 48.8182H124.19ZM134.358 59V48.8182H140.98V50.3643H136.203V53.1286H140.637V54.6747H136.203V57.4538H141.02V59H134.358ZM144.262 59V48.8182H148.08C148.862 48.8182 149.519 48.9541 150.049 49.2259C150.583 49.4976 150.985 49.8788 151.257 50.3693C151.532 50.8565 151.67 51.425 151.67 52.0746C151.67 52.7275 151.531 53.2943 151.252 53.7749C150.977 54.2521 150.571 54.6217 150.034 54.8835C149.497 55.142 148.838 55.2713 148.055 55.2713H145.336V53.7401H147.807C148.264 53.7401 148.639 53.6771 148.93 53.5511C149.222 53.4219 149.438 53.2346 149.577 52.9893C149.719 52.7408 149.79 52.4358 149.79 52.0746C149.79 51.7133 149.719 51.4051 149.577 51.1499C149.434 50.8913 149.217 50.6958 148.925 50.5632C148.634 50.4273 148.258 50.3594 147.797 50.3594H146.107V59H144.262ZM149.522 54.3864L152.043 59H149.984L147.509 54.3864H149.522ZM160.301 51.6172C160.255 51.183 160.059 50.8449 159.714 50.603C159.373 50.361 158.929 50.2401 158.382 50.2401C157.997 50.2401 157.668 50.2981 157.393 50.4141C157.117 50.5301 156.907 50.6875 156.761 50.8864C156.615 51.0852 156.541 51.3123 156.537 51.5675C156.537 51.7796 156.585 51.9635 156.682 52.1193C156.781 52.2751 156.915 52.4077 157.084 52.517C157.253 52.6231 157.441 52.7126 157.646 52.7855C157.852 52.8584 158.059 52.9197 158.268 52.9695L159.222 53.2081C159.607 53.2976 159.976 53.4186 160.331 53.571C160.689 53.7235 161.009 53.9157 161.29 54.1477C161.575 54.3797 161.801 54.6598 161.966 54.9879C162.132 55.3161 162.215 55.7005 162.215 56.1413C162.215 56.7379 162.063 57.2633 161.758 57.7173C161.453 58.1681 161.012 58.5211 160.435 58.7763C159.862 59.0282 159.167 59.1541 158.352 59.1541C157.56 59.1541 156.872 59.0315 156.289 58.7862C155.709 58.541 155.255 58.183 154.927 57.7124C154.602 57.2417 154.426 56.6683 154.4 55.9922H156.214C156.241 56.3468 156.35 56.6418 156.542 56.8771C156.735 57.1125 156.985 57.2881 157.293 57.4041C157.605 57.5201 157.953 57.5781 158.337 57.5781C158.738 57.5781 159.09 57.5185 159.391 57.3991C159.696 57.2765 159.935 57.1075 160.107 56.892C160.279 56.6733 160.367 56.4181 160.371 56.1264C160.367 55.8613 160.289 55.6425 160.137 55.4702C159.984 55.2945 159.771 55.1487 159.496 55.0327C159.224 54.9134 158.906 54.8073 158.541 54.7145L157.383 54.4162C156.544 54.2008 155.881 53.8743 155.394 53.4368C154.91 52.996 154.668 52.411 154.668 51.6818C154.668 51.0819 154.831 50.5566 155.155 50.1058C155.483 49.6551 155.929 49.3054 156.493 49.0568C157.056 48.8049 157.694 48.679 158.407 48.679C159.129 48.679 159.762 48.8049 160.306 49.0568C160.853 49.3054 161.282 49.6518 161.594 50.0959C161.905 50.5367 162.066 51.0438 162.076 51.6172H160.301ZM174.357 53.9091C174.357 55.0062 174.152 55.9458 173.741 56.728C173.333 57.5069 172.776 58.1035 172.07 58.5178C171.368 58.9321 170.571 59.1392 169.679 59.1392C168.788 59.1392 167.989 58.9321 167.283 58.5178C166.58 58.1001 166.023 57.5019 165.612 56.723C165.205 55.9408 165.001 55.0028 165.001 53.9091C165.001 52.812 165.205 51.8741 165.612 51.0952C166.023 50.313 166.58 49.7147 167.283 49.3004C167.989 48.8861 168.788 48.679 169.679 48.679C170.571 48.679 171.368 48.8861 172.07 49.3004C172.776 49.7147 173.333 50.313 173.741 51.0952C174.152 51.8741 174.357 52.812 174.357 53.9091ZM172.503 53.9091C172.503 53.1368 172.382 52.4856 172.14 51.9553C171.901 51.4216 171.57 51.0189 171.146 50.7472C170.721 50.4721 170.233 50.3345 169.679 50.3345C169.126 50.3345 168.637 50.4721 168.212 50.7472C167.788 51.0189 167.455 51.4216 167.213 51.9553C166.975 52.4856 166.855 53.1368 166.855 53.9091C166.855 54.6813 166.975 55.3343 167.213 55.8679C167.455 56.3982 167.788 56.8009 168.212 57.076C168.637 57.3478 169.126 57.4837 169.679 57.4837C170.233 57.4837 170.721 57.3478 171.146 57.076C171.57 56.8009 171.901 56.3982 172.14 55.8679C172.382 55.3343 172.503 54.6813 172.503 53.9091ZM177.501 59V48.8182H181.319C182.102 48.8182 182.758 48.9541 183.288 49.2259C183.822 49.4976 184.224 49.8788 184.496 50.3693C184.771 50.8565 184.909 51.425 184.909 52.0746C184.909 52.7275 184.77 53.2943 184.491 53.7749C184.216 54.2521 183.81 54.6217 183.273 54.8835C182.736 55.142 182.077 55.2713 181.294 55.2713H178.575V53.7401H181.046C181.503 53.7401 181.878 53.6771 182.169 53.5511C182.461 53.4219 182.677 53.2346 182.816 52.9893C182.958 52.7408 183.03 52.4358 183.03 52.0746C183.03 51.7133 182.958 51.4051 182.816 51.1499C182.673 50.8913 182.456 50.6958 182.164 50.5632C181.873 50.4273 181.497 50.3594 181.036 50.3594H179.346V59H177.501ZM182.761 54.3864L185.282 59H183.223L180.748 54.3864H182.761ZM196.33 59H192.879V48.8182H196.399C197.41 48.8182 198.278 49.022 199.004 49.4297C199.733 49.834 200.294 50.4157 200.685 51.1747C201.076 51.9337 201.271 52.8419 201.271 53.8991C201.271 54.9598 201.074 55.8712 200.68 56.6335C200.289 57.3958 199.723 57.9808 198.984 58.3885C198.249 58.7962 197.364 59 196.33 59ZM194.724 57.4041H196.24C196.949 57.4041 197.541 57.2749 198.015 57.0163C198.489 56.7545 198.845 56.3651 199.084 55.848C199.322 55.3277 199.442 54.678 199.442 53.8991C199.442 53.1203 199.322 52.474 199.084 51.9602C198.845 51.4432 198.492 51.0571 198.025 50.8018C197.561 50.5433 196.984 50.4141 196.295 50.4141H194.724V57.4041ZM204.424 59V48.8182H211.046V50.3643H206.268V53.1286H210.703V54.6747H206.268V57.4538H211.086V59H204.424ZM219.2 48.8182H221.457L224.48 56.196H224.599L227.622 48.8182H229.879V59H228.109V52.005H228.015L225.201 58.9702H223.879L221.065 51.9901H220.97V59H219.2V48.8182ZM242.386 53.9091C242.386 55.0062 242.18 55.9458 241.769 56.728C241.362 57.5069 240.805 58.1035 240.099 58.5178C239.396 58.9321 238.599 59.1392 237.708 59.1392C236.816 59.1392 236.017 58.9321 235.311 58.5178C234.609 58.1001 234.052 57.5019 233.641 56.723C233.233 55.9408 233.029 55.0028 233.029 53.9091C233.029 52.812 233.233 51.8741 233.641 51.0952C234.052 50.313 234.609 49.7147 235.311 49.3004C236.017 48.8861 236.816 48.679 237.708 48.679C238.599 48.679 239.396 48.8861 240.099 49.3004C240.805 49.7147 241.362 50.313 241.769 51.0952C242.18 51.8741 242.386 52.812 242.386 53.9091ZM240.531 53.9091C240.531 53.1368 240.41 52.4856 240.169 51.9553C239.93 51.4216 239.598 51.0189 239.174 50.7472C238.75 50.4721 238.261 50.3345 237.708 50.3345C237.154 50.3345 236.665 50.4721 236.241 50.7472C235.817 51.0189 235.484 51.4216 235.242 51.9553C235.003 52.4856 234.884 53.1368 234.884 53.9091C234.884 54.6813 235.003 55.3343 235.242 55.8679C235.484 56.3982 235.817 56.8009 236.241 57.076C236.665 57.3478 237.154 57.4837 237.708 57.4837C238.261 57.4837 238.75 57.3478 239.174 57.076C239.598 56.8009 239.93 56.3982 240.169 55.8679C240.41 55.3343 240.531 54.6813 240.531 53.9091ZM245.53 59V48.8182H252.152V50.3643H247.374V53.1286H251.809V54.6747H247.374V57.4538H252.192V59H245.53ZM258.884 59H255.434V48.8182H258.953C259.964 48.8182 260.833 49.022 261.559 49.4297C262.288 49.834 262.848 50.4157 263.239 51.1747C263.63 51.9337 263.826 52.8419 263.826 53.8991C263.826 54.9598 263.628 55.8712 263.234 56.6335C262.843 57.3958 262.278 57.9808 261.539 58.3885C260.803 58.7962 259.918 59 258.884 59ZM257.278 57.4041H258.794C259.504 57.4041 260.095 57.2749 260.569 57.0163C261.043 56.7545 261.399 56.3651 261.638 55.848C261.877 55.3277 261.996 54.678 261.996 53.8991C261.996 53.1203 261.877 52.474 261.638 51.9602C261.399 51.4432 261.046 51.0571 260.579 50.8018C260.115 50.5433 259.538 50.4141 258.849 50.4141H257.278V57.4041ZM267.739 59H265.77L269.355 48.8182H271.632L275.221 59H273.252L270.533 50.9062H270.453L267.739 59ZM267.803 55.0078H273.173V56.4893H267.803V55.0078ZM283.331 51.6172C283.285 51.183 283.089 50.8449 282.745 50.603C282.403 50.361 281.959 50.2401 281.412 50.2401C281.028 50.2401 280.698 50.2981 280.423 50.4141C280.148 50.5301 279.937 50.6875 279.792 50.8864C279.646 51.0852 279.571 51.3123 279.568 51.5675C279.568 51.7796 279.616 51.9635 279.712 52.1193C279.812 52.2751 279.946 52.4077 280.115 52.517C280.284 52.6231 280.471 52.7126 280.677 52.7855C280.882 52.8584 281.089 52.9197 281.298 52.9695L282.253 53.2081C282.637 53.2976 283.007 53.4186 283.361 53.571C283.719 53.7235 284.039 53.9157 284.321 54.1477C284.606 54.3797 284.831 54.6598 284.997 54.9879C285.163 55.3161 285.245 55.7005 285.245 56.1413C285.245 56.7379 285.093 57.2633 284.788 57.7173C284.483 58.1681 284.042 58.5211 283.466 58.7763C282.892 59.0282 282.198 59.1541 281.383 59.1541C280.59 59.1541 279.903 59.0315 279.319 58.7862C278.739 58.541 278.285 58.183 277.957 57.7124C277.632 57.2417 277.457 56.6683 277.43 55.9922H279.245C279.271 56.3468 279.381 56.6418 279.573 56.8771C279.765 57.1125 280.015 57.2881 280.324 57.4041C280.635 57.5201 280.983 57.5781 281.368 57.5781C281.769 57.5781 282.12 57.5185 282.422 57.3991C282.727 57.2765 282.965 57.1075 283.137 56.892C283.31 56.6733 283.398 56.4181 283.401 56.1264C283.398 55.8613 283.32 55.6425 283.167 55.4702C283.015 55.2945 282.801 55.1487 282.526 55.0327C282.254 54.9134 281.936 54.8073 281.571 54.7145L280.413 54.4162C279.575 54.2008 278.912 53.8743 278.424 53.4368C277.941 52.996 277.699 52.411 277.699 51.6818C277.699 51.0819 277.861 50.5566 278.186 50.1058C278.514 49.6551 278.96 49.3054 279.523 49.0568C280.087 48.8049 280.725 48.679 281.437 48.679C282.16 48.679 282.793 48.8049 283.336 49.0568C283.883 49.3054 284.312 49.6518 284.624 50.0959C284.936 50.5367 285.096 51.0438 285.106 51.6172H283.331Z" fill="black"/>
<path d="M95.0682 40H87.5412V19.6364H95.0582C97.133 19.6364 98.9195 20.044 100.418 20.8594C101.922 21.6681 103.082 22.8348 103.898 24.3594C104.713 25.8774 105.121 27.6937 105.121 29.8082C105.121 31.9295 104.713 33.7524 103.898 35.277C103.089 36.8016 101.932 37.9716 100.428 38.7869C98.9228 39.5956 97.1364 40 95.0682 40ZM92.4631 35.804H94.8793C96.0194 35.804 96.9839 35.6117 97.7727 35.2273C98.5682 34.8362 99.1681 34.2031 99.5724 33.3281C99.9834 32.4465 100.189 31.2732 100.189 29.8082C100.189 28.3433 99.9834 27.1766 99.5724 26.3082C99.1615 25.4332 98.5549 24.8035 97.7528 24.419C96.9574 24.0279 95.9763 23.8324 94.8097 23.8324H92.4631V35.804ZM127.774 29.8182C127.774 32.0587 127.344 33.9579 126.482 35.5156C125.62 37.0734 124.453 38.2566 122.982 39.0653C121.517 39.8741 119.873 40.2784 118.05 40.2784C116.221 40.2784 114.573 39.8707 113.108 39.0554C111.643 38.2401 110.48 37.0568 109.618 35.5057C108.763 33.9479 108.336 32.0521 108.336 29.8182C108.336 27.5777 108.763 25.6785 109.618 24.1207C110.48 22.563 111.643 21.3797 113.108 20.571C114.573 19.7623 116.221 19.358 118.05 19.358C119.873 19.358 121.517 19.7623 122.982 20.571C124.453 21.3797 125.62 22.563 126.482 24.1207C127.344 25.6785 127.774 27.5777 127.774 29.8182ZM122.743 29.8182C122.743 28.4924 122.554 27.3722 122.176 26.4574C121.805 25.5426 121.268 24.8499 120.566 24.3793C119.87 23.9086 119.031 23.6733 118.05 23.6733C117.076 23.6733 116.237 23.9086 115.534 24.3793C114.832 24.8499 114.292 25.5426 113.914 26.4574C113.542 27.3722 113.357 28.4924 113.357 29.8182C113.357 31.1439 113.542 32.2642 113.914 33.179C114.292 34.0937 114.832 34.7865 115.534 35.2571C116.237 35.7277 117.076 35.9631 118.05 35.9631C119.031 35.9631 119.87 35.7277 120.566 35.2571C121.268 34.7865 121.805 34.0937 122.176 33.179C122.554 32.2642 122.743 31.1439 122.743 29.8182ZM116.38 17.6974L118.388 13.2131H122.694L119.691 17.6974H116.38ZM131.208 40V19.6364H136.13V36.0028H144.602V40H131.208ZM152.388 40H147.098L153.969 19.6364H160.521L167.392 40H162.102L157.32 24.767H157.16L152.388 40ZM151.682 31.9858H162.739V35.7244H151.682V31.9858ZM170.144 40V19.6364H178.556C180.081 19.6364 181.397 19.9115 182.504 20.4616C183.617 21.0052 184.476 21.7874 185.079 22.8082C185.682 23.8224 185.984 25.0256 185.984 26.4176C185.984 27.8295 185.676 29.0294 185.059 30.017C184.443 30.9981 183.568 31.7472 182.434 32.2642C181.301 32.7746 179.958 33.0298 178.407 33.0298H173.088V29.152H177.492C178.235 29.152 178.855 29.0559 179.352 28.8636C179.856 28.6648 180.237 28.3665 180.495 27.9688C180.754 27.5644 180.883 27.0473 180.883 26.4176C180.883 25.7879 180.754 25.2675 180.495 24.8565C180.237 24.4389 179.856 24.1274 179.352 23.9219C178.848 23.7098 178.228 23.6037 177.492 23.6037H175.066V40H170.144ZM181.609 30.6932L186.68 40H181.311L176.339 30.6932H181.609ZM200.224 40H194.934L201.805 19.6364H208.358L215.228 40H209.938L205.156 24.767H204.997L200.224 40ZM199.518 31.9858H210.575V35.7244H199.518V31.9858ZM230.387 26.2884C230.275 25.8707 230.109 25.5028 229.89 25.1847C229.671 24.8598 229.403 24.5848 229.085 24.3594C228.767 24.134 228.402 23.965 227.991 23.8523C227.58 23.733 227.129 23.6733 226.639 23.6733C225.651 23.6733 224.796 23.9119 224.073 24.3892C223.357 24.8665 222.804 25.5625 222.413 26.4773C222.022 27.3854 221.826 28.4891 221.826 29.7884C221.826 31.0942 222.015 32.2079 222.393 33.1293C222.771 34.0507 223.318 34.7533 224.034 35.2372C224.75 35.7211 225.618 35.9631 226.639 35.9631C227.54 35.9631 228.303 35.8172 228.926 35.5256C229.555 35.2273 230.033 34.8063 230.357 34.2628C230.682 33.7192 230.845 33.0795 230.845 32.3438L231.759 32.4531H226.808V28.8636H235.588V31.5582C235.588 33.3812 235.2 34.9422 234.424 36.2415C233.655 37.5407 232.595 38.5384 231.242 39.2344C229.897 39.9304 228.349 40.2784 226.599 40.2784C224.657 40.2784 222.95 39.8575 221.478 39.0156C220.007 38.1738 218.86 36.974 218.038 35.4162C217.216 33.8518 216.805 31.9957 216.805 29.848C216.805 28.1776 217.054 26.696 217.551 25.4034C218.048 24.1042 218.741 23.0038 219.629 22.1023C220.524 21.2008 221.558 20.518 222.731 20.054C223.911 19.59 225.18 19.358 226.539 19.358C227.719 19.358 228.816 19.527 229.831 19.8651C230.851 20.2031 231.753 20.6804 232.535 21.2969C233.324 21.9134 233.964 22.6458 234.454 23.4943C234.945 24.3428 235.25 25.2741 235.369 26.2884H230.387ZM258.269 29.8182C258.269 32.0587 257.838 33.9579 256.976 35.5156C256.114 37.0734 254.948 38.2566 253.476 39.0653C252.011 39.8741 250.367 40.2784 248.544 40.2784C246.715 40.2784 245.067 39.8707 243.603 39.0554C242.138 38.2401 240.974 37.0568 240.112 35.5057C239.257 33.9479 238.83 32.0521 238.83 29.8182C238.83 27.5777 239.257 25.6785 240.112 24.1207C240.974 22.563 242.138 21.3797 243.603 20.571C245.067 19.7623 246.715 19.358 248.544 19.358C250.367 19.358 252.011 19.7623 253.476 20.571C254.948 21.3797 256.114 22.563 256.976 24.1207C257.838 25.6785 258.269 27.5777 258.269 29.8182ZM253.237 29.8182C253.237 28.4924 253.049 27.3722 252.671 26.4574C252.299 25.5426 251.763 24.8499 251.06 24.3793C250.364 23.9086 249.525 23.6733 248.544 23.6733C247.57 23.6733 246.731 23.9086 246.029 24.3793C245.326 24.8499 244.786 25.5426 244.408 26.4574C244.037 27.3722 243.851 28.4924 243.851 29.8182C243.851 31.1439 244.037 32.2642 244.408 33.179C244.786 34.0937 245.326 34.7865 246.029 35.2571C246.731 35.7277 247.57 35.9631 248.544 35.9631C249.525 35.9631 250.364 35.7277 251.06 35.2571C251.763 34.7865 252.299 34.0937 252.671 33.179C253.049 32.2642 253.237 31.1439 253.237 29.8182ZM261.702 40V19.6364H270.114C271.639 19.6364 272.955 19.9115 274.062 20.4616C275.175 21.0052 276.034 21.7874 276.637 22.8082C277.24 23.8224 277.542 25.0256 277.542 26.4176C277.542 27.8295 277.234 29.0294 276.617 30.017C276.001 30.9981 275.126 31.7472 273.992 32.2642C272.859 32.7746 271.516 33.0298 269.965 33.0298H264.645V29.152H269.05C269.793 29.152 270.413 29.0559 270.91 28.8636C271.413 28.6648 271.795 28.3665 272.053 27.9688C272.312 27.5644 272.441 27.0473 272.441 26.4176C272.441 25.7879 272.312 25.2675 272.053 24.8565C271.795 24.4389 271.413 24.1274 270.91 23.9219C270.406 23.7098 269.786 23.6037 269.05 23.6037H266.624V40H261.702ZM273.167 30.6932L278.238 40H272.868L267.897 30.6932H273.167ZM285.206 40H279.916L286.787 19.6364H293.34L300.21 40H294.921L290.138 24.767H289.979L285.206 40ZM284.5 31.9858H295.557V35.7244H284.5V31.9858Z" fill="#363636"/>
</g>
<defs>
<clipPath id="clip0_1_2">
<rect width="309" height="84" fill="white"/>
</clipPath>
</defs>
</svg>
