<svg width="153" height="28" viewBox="0 0 153 28" fill="none" xmlns="http://www.w3.org/2000/svg">
<path d="M6.76758 2.11719L11.1426 10.5938L15.5176 2.11719H21.875L14.7998 14.4561L22.063 27H15.6543L11.1426 18.3696L6.64795 27H0.222168L7.50244 14.4561L0.410156 2.11719H6.76758ZM30.4616 12.3882V27H25.1296V8.50879H30.1369L30.4616 12.3882ZM29.778 17.105L28.4279 17.1392C28.4279 15.8403 28.5817 14.6497 28.8894 13.5674C29.2084 12.4736 29.6698 11.5223 30.2736 10.7134C30.8775 9.90446 31.6237 9.27783 32.5124 8.8335C33.4125 8.38916 34.4493 8.16699 35.6228 8.16699C36.4431 8.16699 37.1893 8.29232 37.8615 8.54297C38.5337 8.78223 39.1091 9.1639 39.5876 9.68799C40.0775 10.2007 40.4535 10.8729 40.7155 11.7046C40.9776 12.5249 41.1086 13.5104 41.1086 14.6611V27H35.7766V15.3105C35.7766 14.4902 35.674 13.8693 35.4689 13.4478C35.2753 13.0148 34.9904 12.7186 34.6145 12.5591C34.2385 12.3996 33.7884 12.3198 33.2644 12.3198C32.6947 12.3198 32.1877 12.4451 31.7434 12.6958C31.3104 12.9351 30.9458 13.2712 30.6496 13.7041C30.3534 14.137 30.1312 14.644 29.9831 15.2251C29.8464 15.8062 29.778 16.4328 29.778 17.105ZM40.5617 16.8315L38.8698 16.9683C38.8698 15.715 39.0179 14.5529 39.3142 13.4819C39.6104 12.411 40.0547 11.4824 40.6472 10.6963C41.2396 9.89876 41.9745 9.27783 42.8518 8.8335C43.7404 8.38916 44.7715 8.16699 45.945 8.16699C46.8109 8.16699 47.597 8.29232 48.3034 8.54297C49.0212 8.79362 49.6364 9.19808 50.1491 9.75635C50.6732 10.3146 51.0777 11.0495 51.3625 11.9609C51.6473 12.861 51.7897 13.9661 51.7897 15.2764V27H46.4235V15.2764C46.4235 14.4674 46.321 13.8522 46.1159 13.4307C45.9222 13.0091 45.6374 12.7186 45.2614 12.5591C44.8968 12.3996 44.4582 12.3198 43.9455 12.3198C43.3758 12.3198 42.8802 12.4395 42.4587 12.6787C42.0371 12.9066 41.684 13.2256 41.3991 13.6357C41.1143 14.0345 40.9035 14.5073 40.7668 15.0542C40.6301 15.6011 40.5617 16.1935 40.5617 16.8315ZM55.6425 17.9424V17.5835C55.6425 16.2277 55.8362 14.9801 56.2235 13.8408C56.6109 12.6901 57.1806 11.6932 57.9325 10.8501C58.6845 10.007 59.6073 9.35189 60.7011 8.88477C61.7948 8.40625 63.0481 8.16699 64.4608 8.16699C65.8964 8.16699 67.161 8.40625 68.2548 8.88477C69.3599 9.35189 70.2885 10.007 71.0404 10.8501C71.7924 11.6932 72.362 12.6901 72.7494 13.8408C73.1368 14.9801 73.3305 16.2277 73.3305 17.5835V17.9424C73.3305 19.2868 73.1368 20.5343 72.7494 21.6851C72.362 22.8244 71.7924 23.8213 71.0404 24.6758C70.2885 25.5189 69.3656 26.174 68.2719 26.6411C67.1781 27.1082 65.9192 27.3418 64.495 27.3418C63.0823 27.3418 61.8233 27.1082 60.7182 26.6411C59.613 26.174 58.6845 25.5189 57.9325 24.6758C57.1806 23.8213 56.6109 22.8244 56.2235 21.6851C55.8362 20.5343 55.6425 19.2868 55.6425 17.9424ZM60.9916 17.5835V17.9424C60.9916 18.6715 61.0486 19.3551 61.1625 19.9932C61.2878 20.6312 61.4872 21.1895 61.7606 21.668C62.0341 22.1465 62.393 22.5225 62.8373 22.7959C63.293 23.0579 63.8456 23.189 64.495 23.189C65.1444 23.189 65.6913 23.0579 66.1356 22.7959C66.58 22.5225 66.9389 22.1465 67.2123 21.668C67.4857 21.1895 67.6794 20.6312 67.7934 19.9932C67.9187 19.3551 67.9813 18.6715 67.9813 17.9424V17.5835C67.9813 16.8657 67.9187 16.1935 67.7934 15.5669C67.6794 14.9289 67.4857 14.3649 67.2123 13.875C66.9389 13.3851 66.5743 13.0034 66.1186 12.73C65.6742 12.4565 65.1216 12.3198 64.4608 12.3198C63.8228 12.3198 63.2816 12.4565 62.8373 12.73C62.393 13.0034 62.0341 13.3851 61.7606 13.875C61.4872 14.3649 61.2878 14.9289 61.1625 15.5669C61.0486 16.1935 60.9916 16.8657 60.9916 17.5835ZM85.899 27.3418C84.4293 27.3418 83.1134 27.1082 81.9513 26.6411C80.7892 26.174 79.8036 25.5303 78.9947 24.71C78.1972 23.8783 77.5877 22.9212 77.1661 21.8389C76.7446 20.7565 76.5338 19.6001 76.5338 18.3696V17.7202C76.5338 16.3416 76.7275 15.0713 77.1148 13.9092C77.5022 12.7471 78.0662 11.7388 78.8067 10.8843C79.5587 10.0184 80.4815 9.35189 81.5753 8.88477C82.669 8.40625 83.9166 8.16699 85.318 8.16699C86.6282 8.16699 87.796 8.38346 88.8214 8.81641C89.8468 9.23796 90.7127 9.84749 91.419 10.645C92.1254 11.4312 92.6609 12.3825 93.0255 13.499C93.4015 14.6042 93.5895 15.846 93.5895 17.2246V19.4121H78.6871V15.9771H88.36V15.5669C88.36 14.9175 88.2403 14.3478 88.0011 13.8579C87.7732 13.368 87.4314 12.992 86.9757 12.73C86.5313 12.4565 85.9674 12.3198 85.2838 12.3198C84.6344 12.3198 84.0932 12.4565 83.6603 12.73C83.2273 13.0034 82.8798 13.3908 82.6178 13.8921C82.3671 14.382 82.1848 14.9574 82.0709 15.6182C81.957 16.2676 81.9 16.9683 81.9 17.7202V18.3696C81.9 19.0874 81.9968 19.7425 82.1905 20.335C82.3842 20.9274 82.669 21.4344 83.045 21.856C83.421 22.2775 83.8767 22.6079 84.4122 22.8472C84.9477 23.0864 85.5572 23.2061 86.2408 23.2061C87.0839 23.2061 87.8871 23.0465 88.6505 22.7275C89.4138 22.3971 90.0746 21.8844 90.6329 21.1895L93.128 24.0435C92.7521 24.5903 92.2223 25.1201 91.5387 25.6328C90.8665 26.1341 90.0576 26.5443 89.1119 26.8633C88.1663 27.1823 87.0953 27.3418 85.899 27.3418ZM108.004 22.8643V0.75H113.37V27H108.551L108.004 22.8643ZM96.4852 17.9766V17.6177C96.4852 16.2163 96.639 14.9403 96.9466 13.7896C97.2656 12.6274 97.727 11.6305 98.3309 10.7988C98.9461 9.95573 99.7037 9.30632 100.604 8.85059C101.504 8.39486 102.535 8.16699 103.697 8.16699C104.768 8.16699 105.702 8.40625 106.5 8.88477C107.297 9.35189 107.975 10.0127 108.533 10.8672C109.103 11.7103 109.565 12.7072 109.918 13.8579C110.271 14.9972 110.539 16.2334 110.721 17.5664V18.1816C110.55 19.4577 110.282 20.6483 109.918 21.7534C109.565 22.8586 109.103 23.8327 108.533 24.6758C107.975 25.5075 107.292 26.1626 106.483 26.6411C105.685 27.1082 104.745 27.3418 103.663 27.3418C102.501 27.3418 101.47 27.1082 100.57 26.6411C99.681 26.174 98.9347 25.5189 98.3309 24.6758C97.727 23.8327 97.2656 22.8415 96.9466 21.7021C96.639 20.5628 96.4852 19.321 96.4852 17.9766ZM101.817 17.6177V17.9766C101.817 18.7057 101.868 19.3836 101.971 20.0103C102.085 20.6369 102.267 21.1895 102.518 21.668C102.769 22.1465 103.099 22.5225 103.509 22.7959C103.919 23.0579 104.421 23.189 105.013 23.189C105.811 23.189 106.466 23.0067 106.978 22.6421C107.491 22.2661 107.878 21.7477 108.14 21.0869C108.402 20.4261 108.539 19.6571 108.551 18.7798V16.9854C108.551 16.2562 108.477 15.6011 108.328 15.02C108.18 14.439 107.958 13.9491 107.662 13.5503C107.377 13.1515 107.018 12.8496 106.585 12.6445C106.152 12.4281 105.64 12.3198 105.047 12.3198C104.466 12.3198 103.971 12.4565 103.56 12.73C103.15 12.992 102.814 13.3623 102.552 13.8408C102.301 14.3193 102.113 14.8833 101.988 15.5327C101.874 16.1707 101.817 16.8657 101.817 17.6177ZM127.767 22.5908V14.6611C127.767 14.1029 127.682 13.6243 127.511 13.2256C127.34 12.8268 127.072 12.5135 126.708 12.2856C126.343 12.0578 125.87 11.9438 125.289 11.9438C124.799 11.9438 124.372 12.0293 124.007 12.2002C123.654 12.3711 123.381 12.616 123.187 12.9351C123.005 13.2541 122.914 13.6471 122.914 14.1143H117.582C117.582 13.2826 117.77 12.5078 118.146 11.79C118.521 11.0723 119.057 10.4399 119.752 9.89307C120.458 9.34619 121.301 8.92464 122.281 8.62842C123.261 8.3208 124.361 8.16699 125.58 8.16699C127.027 8.16699 128.314 8.41195 129.442 8.90186C130.581 9.38037 131.481 10.1038 132.142 11.0723C132.803 12.0293 133.133 13.237 133.133 14.6953V22.437C133.133 23.5535 133.196 24.4308 133.321 25.0688C133.458 25.6955 133.652 26.2424 133.902 26.7095V27H128.519C128.268 26.4645 128.08 25.8037 127.955 25.0176C127.83 24.2201 127.767 23.4111 127.767 22.5908ZM128.434 15.7207L128.468 18.6602H125.819C125.226 18.6602 124.714 18.7342 124.281 18.8823C123.859 19.0304 123.517 19.2355 123.255 19.4976C122.993 19.7482 122.8 20.0444 122.674 20.3862C122.56 20.7166 122.503 21.0812 122.503 21.48C122.503 21.856 122.595 22.1978 122.777 22.5054C122.959 22.8016 123.21 23.0352 123.529 23.2061C123.848 23.377 124.218 23.4624 124.64 23.4624C125.335 23.4624 125.927 23.3257 126.417 23.0522C126.918 22.7788 127.306 22.4484 127.579 22.061C127.853 21.6623 127.989 21.292 127.989 20.9502L129.271 23.1719C129.066 23.6276 128.815 24.1004 128.519 24.5903C128.223 25.0688 127.847 25.5189 127.391 25.9404C126.935 26.3506 126.383 26.6867 125.733 26.9487C125.095 27.2108 124.326 27.3418 123.426 27.3418C122.264 27.3418 121.21 27.1082 120.265 26.6411C119.319 26.1626 118.561 25.5075 117.992 24.6758C117.433 23.8441 117.154 22.887 117.154 21.8047C117.154 20.8363 117.331 19.9761 117.684 19.2241C118.037 18.4722 118.567 17.8341 119.273 17.3101C119.991 16.786 120.891 16.3929 121.974 16.1309C123.056 15.8574 124.321 15.7207 125.768 15.7207H128.434ZM147.53 21.856C147.53 21.5142 147.422 21.2122 147.206 20.9502C147.001 20.6882 146.625 20.4489 146.078 20.2324C145.542 20.016 144.785 19.7995 143.805 19.583C142.882 19.3893 142.022 19.1387 141.224 18.8311C140.427 18.512 139.732 18.1304 139.139 17.686C138.547 17.2303 138.085 16.6948 137.755 16.0796C137.425 15.453 137.259 14.7409 137.259 13.9434C137.259 13.1686 137.425 12.4338 137.755 11.7388C138.097 11.0438 138.587 10.4285 139.225 9.89307C139.874 9.35758 140.66 8.93604 141.583 8.62842C142.517 8.3208 143.577 8.16699 144.762 8.16699C146.391 8.16699 147.798 8.42334 148.983 8.93604C150.168 9.43734 151.079 10.1437 151.717 11.0552C152.356 11.9552 152.675 12.9863 152.675 14.1484H147.342C147.342 13.6699 147.251 13.2541 147.069 12.9009C146.887 12.5477 146.608 12.2743 146.232 12.0806C145.856 11.8755 145.36 11.7729 144.745 11.7729C144.266 11.7729 143.845 11.8584 143.48 12.0293C143.127 12.1888 142.848 12.411 142.643 12.6958C142.449 12.9806 142.352 13.311 142.352 13.687C142.352 13.9491 142.409 14.1883 142.523 14.4048C142.648 14.6099 142.836 14.8035 143.087 14.9858C143.349 15.1567 143.685 15.3105 144.095 15.4473C144.517 15.584 145.03 15.715 145.633 15.8403C146.921 16.0796 148.094 16.4157 149.154 16.8486C150.225 17.2816 151.079 17.8797 151.717 18.6431C152.367 19.4064 152.692 20.4147 152.692 21.668C152.692 22.4883 152.504 23.2402 152.128 23.9238C151.763 24.6074 151.233 25.2056 150.538 25.7183C149.843 26.231 149.012 26.6297 148.043 26.9146C147.075 27.1994 145.981 27.3418 144.762 27.3418C143.019 27.3418 141.543 27.0285 140.336 26.4019C139.128 25.7752 138.217 24.9891 137.601 24.0435C136.997 23.0864 136.696 22.1066 136.696 21.104H141.703C141.726 21.7192 141.879 22.2205 142.164 22.6079C142.46 22.9953 142.842 23.2801 143.309 23.4624C143.776 23.6333 144.3 23.7188 144.882 23.7188C145.463 23.7188 145.947 23.639 146.334 23.4795C146.722 23.32 147.018 23.1035 147.223 22.8301C147.428 22.5452 147.53 22.2205 147.53 21.856Z" fill="#388867"/>
</svg>
